<svg width="121" height="232" viewBox="0 0 121 232" fill="none" xmlns="http://www.w3.org/2000/svg">
<path d="M101.806 26.0752L110.136 0.47345L72.1899 81.9336C73.0784 75.0095 78.0484 66.1071 80.9083 59.823L97.0399 24.9115C99.761 18.9184 104.028 10.3301 105.508 3.9646L91.2555 33.0575L61.4725 97.0619L51.0327 120.336L45.1557 130.786L31.4674 131.973L3.70205 134.301L0 138.956L11.1061 140.119L9.25512 141.283L18.5102 142.773L41.648 144.774C35.5212 158.355 32.8279 173.856 30.2735 188.996C29.0333 196.374 27.025 203.367 27.0897 211.106C27.1453 216.867 35.225 233.566 40.6855 230.738C44.4709 228.783 48.6819 218.1 50.3571 213.434L65.0172 173.867C69.8206 161.788 69.4874 157.598 79.594 157.575L106.434 156.411L94.4022 155.248H73.1155V152.967H91.2555L101.806 134.301L99.0298 131.973L104.583 126.155H85.1471C91.274 114.32 107.239 73.5898 111.617 59.823L118.466 34.2212L110.136 42.3673C114.856 32.883 118.466 29.2871 120.317 17.9292L113.838 26.0752L112.912 20.2566L103.389 37.0374L99.0298 47.0221C100.686 39.9234 100.936 37.1073 105.508 31.8938L110.136 10.9469C105.953 15.4039 104.009 19.8726 101.806 26.0752Z" fill="white"/>
</svg>
