<svg width="143" height="222" viewBox="0 0 143 222" fill="none" xmlns="http://www.w3.org/2000/svg">
<path d="M0 90.7699C4.40544 92.9693 24.4705 91.9336 30.5419 91.9336L27.7654 95.1062H15.9488L12.0317 98.8926L13.8827 102.407L4.48874 121.027H17.5847C8.69056 146.989 3.46142 159.255 6.21944 188.522C6.5989 192.583 6.19167 197.634 7.08016 201.323C8.88491 208.852 15.7522 217.813 21.2868 221.106C30.5419 203.232 37.0945 183.285 44.3228 164.084L49.7463 151.283L57.1411 132.664C58.2147 129.906 59.8159 124.797 61.5928 122.888C64.1287 120.177 68.0344 121.678 73.1154 119.863L63.8603 118.699L74.9665 117.535L88.8491 116.372H109.21L92.5512 115.208L65.7113 114.044C70.126 108.575 73.7541 111.624 79.594 111.717L103.657 109.389H121.242C121.242 109.389 131.949 108.106 133.949 107.606C135.949 107.106 139.049 105.606 137.449 105.606H128.449C126.449 105.606 113.949 104.606 111.949 104.606C109.949 104.606 89.7747 103.571 89.7747 103.571L102.732 102.407H125.87C128.449 102.407 142.949 98.9159 142.949 98.9159H121.242H84.2216L71.2644 97.7522L78.3724 80.2965C81.6024 71.7199 85.4988 55.9515 87.6552 46.5487L89.7284 38.4026C91.8201 31.8975 93.5693 28.802 86.0726 26.7655C87.2665 24.3915 89.0898 21.4939 89.1268 18.6195C89.1916 14.2323 86.1281 6.30734 80.5195 12.8009L78.6685 0L68.4046 22.1106L58.4368 39.5664L43.8045 66.3319L31.3008 88.4192L24.0633 89.6527H12.0317L0 90.7699Z" fill="white"/>
</svg>
