<svg width="235" height="254" viewBox="0 0 235 254" fill="none" xmlns="http://www.w3.org/2000/svg">
<g id="Selection">
<path id="right" d="M88.6624 122.77C93.152 124.969 113.601 123.934 119.788 123.934L116.958 127.106H104.916L100.924 130.893L102.81 134.407L93.2369 153.027H106.583C97.519 178.989 92.19 191.255 95.0007 220.522C95.3874 224.583 94.9724 229.634 95.8779 233.323C97.7171 240.852 104.716 249.813 110.356 253.106C119.788 235.232 126.466 215.285 133.832 196.084L139.359 183.283L146.895 164.664C147.99 161.906 149.621 156.797 151.432 154.888C154.017 152.177 157.997 153.678 163.175 151.863L153.743 150.699L165.061 149.535L179.209 148.372H199.96L182.982 147.208L155.629 146.044C160.128 140.575 163.826 143.624 169.777 143.717L194.3 141.389H212.221C212.221 141.389 223.133 140.106 225.171 139.606C227.209 139.106 230.368 137.606 228.738 137.606H219.566C217.527 137.606 204.789 136.606 202.75 136.606C200.712 136.606 180.153 135.571 180.153 135.571L193.357 134.407H216.937C219.566 134.407 234.343 130.916 234.343 130.916H212.221H174.493L161.289 129.752L168.532 112.296C171.824 103.72 175.795 87.9515 177.993 78.5487L180.105 70.4026C182.237 63.8975 184.02 60.802 176.38 58.7655C177.596 56.3915 179.455 53.4939 179.492 50.6195C179.558 46.2323 176.436 38.3073 170.721 44.8009L168.834 32L158.374 54.1106L148.216 71.5664L133.304 98.3319L120.561 120.419L113.186 121.653H100.924L88.6624 122.77Z" fill="white"/>
<path id="left" d="M103.752 26.0752L112.24 0.47345L73.5694 81.9336C74.4748 75.0095 79.5398 66.1071 82.4543 59.823L98.8942 24.9115C101.667 18.9184 106.015 10.3301 107.524 3.9646L92.9992 33.0575L62.6471 97.0619L52.0079 120.336L46.0186 130.786L32.0687 131.973L3.77279 134.301L0 138.956L11.3184 140.119L9.43197 141.283L18.8639 142.773L42.4439 144.774C36.1999 158.355 33.4552 173.856 30.852 188.996C29.5881 196.374 27.5413 203.367 27.6074 211.106C27.664 216.867 35.8981 233.566 41.4629 230.738C45.3206 228.783 49.6122 218.1 51.3194 213.434L66.2596 173.867C71.1548 161.788 70.8152 157.598 81.1149 157.575L108.468 156.411L96.2061 155.248H74.5126V152.967H92.9992L103.752 134.301L100.922 131.973L106.581 126.155H86.7741C93.0181 114.32 109.288 73.5898 113.75 59.823L120.729 34.2212L112.24 42.3673C117.051 32.883 120.729 29.2871 122.616 17.9292L116.013 26.0752L115.07 20.2566L105.365 37.0374L100.922 47.0221C102.61 39.9234 102.865 37.1073 107.524 31.8938L112.24 10.9469C107.977 15.4039 105.996 19.8726 103.752 26.0752Z" fill="white"/>
</g>
</svg>
