<svg width="579" height="79" viewBox="0 0 579 79" fill="none" xmlns="http://www.w3.org/2000/svg">
<g id="Group 2">
<path id="Vector 1" d="M0 0V79H67.5L90.5 40V0H0Z" fill="black"/>
<path id="Vector 6" d="M453 39H571L579 26.5V0H475L453 39Z" fill="black"/>
<path id="Logo" d="M42.6675 8.72566L40.1967 12.4646C40.1967 12.4646 40.8558 8.57322 41.2947 7L37.0673 14.1903L28.2334 30.0089L25.1368 35.761L23.3936 38.3437L19.3336 38.6371L11.0981 39.2124L10 40.3629L13.2942 40.6503L12.7452 40.938L15.4903 41.3063L22.3532 41.8008C20.5359 45.1573 19.7371 48.9884 18.9794 52.7302C18.6116 54.5537 18.0159 56.282 18.0351 58.1946C18.0516 59.6185 20.4481 63.7456 22.0677 63.0467C23.1905 62.5635 24.4395 59.9232 24.9364 58.77L29.2848 48.9911C30.7095 46.0058 30.354 44.9216 33.3517 44.9159H34.8517L32.8517 43.8141L37.4516 44.1017L42.6675 43.8141C40.0294 50.2308 38.4783 53.2621 39.2964 60.4956C39.4089 61.4993 39.2881 62.7476 39.5517 63.6593C40.0869 65.5201 42.1238 67.7348 43.7655 68.5487C46.5106 64.1309 48.4543 59.2013 50.5982 54.4558L52.2067 51.292L54.4002 46.6904C54.7187 46.0088 55.1936 44.7461 55.7207 44.2743C56.121 43.9159 57.6314 43.9752 59.1385 43.5266L56.3934 43.239L59.1385 42.9159L61.3517 42.6636L63.8517 42.0885H60.3517H56.9424L59.6875 41.4159H63.3517C63.3517 41.4159 76.589 40.6209 77.1822 40.4973C77.7754 40.3738 78.6949 40.003 78.2203 40.003H75.5508C74.9576 40.003 71.25 39.7559 70.6568 39.7559C70.0636 39.7559 64.0797 39.5001 64.0797 39.5001L71.3517 39.2124C72.1166 39.2124 79.8517 38.4159 79.8517 38.4159L66.3517 38.3496H62.4327L58.5895 38.0619L60.6978 33.7477C61.6558 31.6282 62.8114 27.731 63.4509 25.4071L64.0661 23.3938L62.9817 20.5177V16.7187L61.3346 17.0664L60.7856 13.9027L57.7412 19.3673L54.7846 23.6814L50.4446 30.2965L46.7358 35.7553L46.3517 35.9159L45.2812 36.0603L43.3517 36.4159C44.6584 36.9594 46.159 36.6238 46.5106 36.6238C46.3517 36.9159 40.3517 37.1991 40.3517 37.1991H35.2555C37.0728 34.2741 43.1067 20.8053 43.1067 20.8053L45.1382 14.4779L42.6675 16.4912L45.6872 10.4513L43.7655 12.4646L43.4908 11.0265L41.2947 13.9027L42.6675 8.72566Z" fill="white"/>
<text id="HOME" fill="white" xml:space="preserve" style="white-space: pre" font-family="Inter" font-size="20" letter-spacing="0em"><tspan x="115.107" y="27.2727">HOME</tspan></text>
<text id="HYPE 2.0" fill="white" xml:space="preserve" style="white-space: pre" font-family="Inter" font-size="20" letter-spacing="0em"><tspan x="357.006" y="27.2727">HYPE 2.0</tspan></text>
<text id="METALLIC" fill="white" xml:space="preserve" style="white-space: pre" font-family="Inter" font-size="20" letter-spacing="0em"><tspan x="475.131" y="26.2727">METALLIC</tspan></text>
<text id="ABOUT" fill="white" xml:space="preserve" style="white-space: pre" font-family="Inter" font-size="20" letter-spacing="0em"><tspan x="233.293" y="27.2727">ABOUT</tspan></text>
<text id="- - -" fill="white" xml:space="preserve" style="white-space: pre" font-family="Road Rage" font-size="20" letter-spacing="0em"><tspan x="62.3594" y="55.6833">-&#10;</tspan><tspan x="62.3594" y="60.6833">-&#10;</tspan><tspan x="62.3594" y="65.6833">-</tspan></text>
</g>
</svg>
