<svg width="581" height="81" viewBox="0 0 581 81" fill="none" xmlns="http://www.w3.org/2000/svg">
<g id="Group 1">
<path id="Vector 1" d="M1 1V80H68.5L91.5 41V1H1Z" fill="black" stroke="white"/>
<path id="Vector 2" d="M215 1H93V40H193L215 1Z" fill="black" stroke="white"/>
<path id="Vector 4" d="M194.5 40H322.5L344.5 1H216.5L194.5 40Z" fill="black" stroke="white"/>
<path id="Vector 5" d="M324 40H452L474 1H346L324 40Z" fill="black" stroke="white"/>
<path id="Vector 6" d="M454 40H572L580 27.5V1H476L454 40Z" fill="black" stroke="white"/>
<path id="Logo" d="M46.2812 37.0603L46.3112 37.2228L55.7846 24.6814L51.4446 31.2965L47.7358 36.7553L47.3517 36.9159L46.2812 37.0603ZM46.2812 37.0603L46.3032 37.223C46.294 37.2233 46.2848 37.2236 46.2756 37.2238C46.0398 37.2303 45.7903 37.2245 45.5379 37.1973L46.2812 37.0603ZM59.8259 38.5782L59.6268 38.5633L59.5895 39.0619L60.0387 39.2815L60.1264 39.1021L63.4327 39.3496H67.3517L59.8259 38.5782ZM59.8259 38.5782L61.6978 34.7477C62.6558 32.6282 63.8114 28.731 64.4509 26.4071L65.0661 24.3938L63.9817 21.5177L59.8259 38.5782ZM60.6875 42.4159H64.3517C64.3517 42.4159 77.2132 41.6435 78.1491 41.503L60.6875 42.4159ZM60.6875 42.4159L59.9832 42.5885M60.6875 42.4159L59.9832 42.5885M59.9832 42.5885H57.9424V43.0885L58.0614 43.5741L60.0436 43.0885H61.3517H62.6214L62.267 43.17L59.9832 42.5885ZM43.4562 45.3265L43.695 45.3133L43.6675 44.8141L43.205 44.624C43.1746 44.6979 43.1443 44.7715 43.1142 44.8446L38.4516 45.1017L43.4562 45.3265ZM43.4562 45.3265C43.3413 45.6044 43.2287 45.8761 43.1184 46.1421C40.8196 51.686 39.5368 54.7796 40.2964 61.4956C40.339 61.8756 40.3482 62.2907 40.3574 62.7093C40.3726 63.3963 40.3879 64.0928 40.5517 64.6593C41.0869 66.5201 43.1238 68.7348 44.7655 69.5487C46.9204 66.0807 48.5815 62.2974 50.2332 58.5352C50.6856 57.5049 51.1373 56.4761 51.5982 55.4558L53.2067 52.292L55.4002 47.6904L43.4562 45.3265ZM41.1967 13.4646L40.7037 13.3811L41.6138 13.7403L42.4019 12.5477L41.8114 14.7745L42.6921 15.2061L44.2095 13.2188L44.2744 13.5584L44.4566 14.5124L44.7531 14.2018L43.2202 17.2676L43.9833 17.8788L45.1466 16.9309L43.6391 21.6261L43.6332 21.6394L43.5824 21.7524C43.5379 21.8516 43.4722 21.9975 43.3881 22.1843C43.2197 22.558 42.9771 23.0951 42.6803 23.7488C42.0866 25.0563 41.2762 26.8299 40.4092 28.6945C38.6673 32.4409 36.7195 36.505 35.8308 37.9353L35.3562 38.6991H36.2555H41.3517H41.3635L41.3753 38.6986L41.3517 38.1991L41.3754 38.6986L41.3756 38.6986L41.3764 38.6985L41.3798 38.6984L41.3929 38.6978L41.4435 38.6953L41.6351 38.6858C41.8001 38.6774 42.0358 38.6652 42.3192 38.6496C42.8856 38.6184 43.6434 38.5737 44.4068 38.5198C45.1686 38.466 45.9425 38.4026 46.5387 38.3336C46.8351 38.2993 47.0985 38.2625 47.298 38.2228C47.3959 38.2033 47.4939 38.1801 47.5779 38.1512C47.6192 38.137 47.6726 38.1162 47.7261 38.0858C47.7656 38.0634 47.8768 37.9971 47.9498 37.8628L48.3519 37.1238H48.0899L48.1493 37.0363L51.8581 31.5775L51.8582 31.5776L51.8626 31.5708L56.1998 24.96L59.1536 20.6499L59.1667 20.6308L59.178 20.6106L61.5346 16.3806L61.842 18.1519L61.9306 18.6627L62.4379 18.5556L63.4817 18.3353V21.5177V21.6088L63.5138 21.6941L64.5381 24.4107L63.9728 26.261L63.9726 26.2609L63.9688 26.2744C63.3287 28.6005 62.1842 32.4549 61.2452 34.535L59.1403 38.8424L58.8162 39.5055L59.5522 39.5605L63.3953 39.8482L63.414 39.8496H63.4327H67.3504H67.3517L68.7054 39.8563L65.06 40.0005L65.0584 40.9996L65.0797 40.5001L65.0585 40.9996L65.0587 40.9997L65.0595 40.9997L65.0627 40.9998L65.0756 41.0004L65.1258 41.0025L65.3168 41.0106L66.003 41.0396C66.5734 41.0636 67.3401 41.0956 68.1255 41.1276C69.6865 41.1912 71.3468 41.2559 71.6568 41.2559C71.8838 41.2559 72.6287 41.2962 73.4876 41.345C72.691 41.3971 71.8498 41.451 71.0129 41.504C69.3216 41.611 67.6488 41.7143 66.3988 41.7907C65.7737 41.8289 65.2545 41.8605 64.8914 41.8824L64.4704 41.9079L64.3596 41.9145L64.3367 41.9159H60.6875H60.6272L60.5686 41.9303L57.8234 42.6028L57.9424 43.5885H58.6428L57.335 43.7424L57.34 44.5326C57.2554 44.5481 57.1742 44.5646 57.0977 44.5825C56.8692 44.636 56.589 44.7211 56.3872 44.9017C56.0424 45.2104 55.7556 45.7279 55.5329 46.1843C55.3973 46.4621 55.2565 46.7824 55.1367 47.0548C55.0641 47.2197 54.9993 47.367 54.9481 47.4767C54.9478 47.4774 54.9475 47.478 54.9472 47.4787L52.7581 52.0712L51.1525 55.2292L51.1473 55.2394L51.1426 55.2499C50.6766 56.2814 50.2215 57.3177 49.7671 58.3526C48.1821 61.9624 46.604 65.5565 44.5899 68.8789C43.9438 68.4808 43.2414 67.8736 42.619 67.1663C41.8649 66.3092 41.272 65.3546 41.0322 64.5211L41.032 64.5205C40.9195 64.1311 40.884 63.6475 40.8672 63.0967C40.8634 62.9732 40.8606 62.8455 40.8578 62.7155C40.8485 62.292 40.8386 61.8444 40.7933 61.4399L40.7932 61.4394C40.3897 57.8714 40.5725 55.3664 41.171 52.9697C41.6885 50.8971 42.5166 48.8995 43.5785 46.3381C43.7559 45.9102 43.9398 45.4666 44.1299 45.0042L44.4313 44.2712L43.6399 44.3148L38.4535 44.6009L33.8829 44.3151L33.6104 45.252L33.9237 45.4246C33.3503 45.4482 32.8777 45.5213 32.4812 45.6653C31.9699 45.851 31.6091 46.1457 31.3225 46.5442C31.0511 46.9214 30.8484 47.3907 30.6371 47.906C30.6021 47.9915 30.5665 48.079 30.53 48.1688C30.3404 48.6354 30.1257 49.1634 29.8335 49.7757L29.8334 49.7757L29.8279 49.7879L25.4796 59.5669L25.4795 59.5668L25.4772 59.5722C25.2326 60.14 24.8059 61.066 24.3072 61.9038C24.0576 62.3231 23.7966 62.7089 23.5384 63.0134C23.2726 63.327 23.0445 63.5123 22.8701 63.5874L22.8696 63.5876C22.6973 63.662 22.4343 63.6424 22.0397 63.3714C21.654 63.1065 21.2415 62.663 20.8568 62.1256C20.4756 61.5932 20.141 60.9961 19.9024 60.4512C19.6569 59.8904 19.5381 59.4415 19.5351 59.1893C19.526 58.2859 19.662 57.4165 19.851 56.5336C19.9361 56.1362 20.0309 55.7408 20.1275 55.3376C20.1384 55.2921 20.1493 55.2464 20.1603 55.2007C20.2675 54.7524 20.3756 54.2948 20.4695 53.8294C21.2294 50.0766 22.0168 46.3193 23.7929 43.0389L24.1617 42.3578L23.3892 42.3021L16.5415 41.8087L15.3694 41.6514L16.0388 41.3007L14.3376 41.1522L12.0803 40.9553L12.3261 40.6977L20.3684 40.1358L20.3696 40.1358L24.4297 39.8424L24.6721 39.8249L24.8081 39.6234L26.5513 37.0407L26.5652 37.02L26.5771 36.998L29.6718 31.2493L38.5011 15.4389L41.1437 10.9443C41.1254 11.0407 41.1073 11.136 41.0897 11.23C40.9794 11.817 40.883 12.3545 40.8141 12.7452C40.7797 12.9406 40.7521 13.0993 40.7331 13.2093L40.7113 13.3363L40.7057 13.3696L40.7042 13.3781L40.7038 13.3803L40.7038 13.3809L40.7037 13.381L41.1967 13.4646ZM47.5106 37.6238L47.1796 37.4437L44.5274 38.0099C45.1562 38.203 45.7872 38.2376 46.303 38.2235C46.614 38.2149 46.8907 38.1883 47.1067 38.1648C47.1727 38.1576 47.2289 38.1513 47.2769 38.1459C47.4043 38.1315 47.473 38.1238 47.5106 38.1238V37.6238ZM62.2491 17.5734L62.2313 17.5772L62.3346 18.0664L62.8273 17.9809L62.8242 17.963L63.4817 17.8242L62.2491 17.5734ZM72.3517 40.2124C72.6837 40.2124 74.3288 40.0624 76.0847 39.8925L71.3913 40.2504L72.3517 40.2124ZM78.9151 41.2797C79.036 41.2341 79.1427 41.1881 79.2203 41.147C79.3753 41.0652 79.4146 41.003 79.2203 41.003H78.853C78.8509 41.0302 78.8511 41.0593 78.8543 41.0901C78.8622 41.1655 78.8853 41.2282 78.9151 41.2797ZM78.1028 41.003H76.5508C76.2542 41.003 75.179 40.9413 74.1038 40.8795C73.0286 40.8177 71.9534 40.7559 71.6568 40.7559C71.6063 40.7559 71.5167 40.754 71.3951 40.7507L78.1028 41.003ZM59.6532 43.973L60.1385 43.9159L57.4262 44.5174L57.3934 44.239L57.4455 43.7417L59.6532 43.973ZM30.9943 48.3544C31.708 46.598 31.9834 45.9204 34.3517 45.9159L19.9794 53.7302C19.8781 54.2326 19.7594 54.7277 19.6411 55.2215C19.33 56.52 19.0212 57.8089 19.0351 59.1946C19.0516 60.6185 21.4481 64.7456 23.0677 64.0467C24.1905 63.5635 25.4395 60.9232 25.9364 59.77L30.2848 49.9911C30.5839 49.3643 30.8046 48.8212 30.9943 48.3544Z" fill="white" stroke="white"/>
<text id="HOME" fill="white" xml:space="preserve" style="white-space: pre" font-family="Inter" font-size="20" letter-spacing="0em"><tspan x="116.107" y="28.2727">HOME</tspan></text>
<text id="HYPE 2.0" fill="white" xml:space="preserve" style="white-space: pre" font-family="Inter" font-size="20" letter-spacing="0em"><tspan x="358.006" y="28.2727">HYPE 2.0</tspan></text>
<text id="METALLIC" fill="white" xml:space="preserve" style="white-space: pre" font-family="Inter" font-size="20" letter-spacing="0em"><tspan x="476.131" y="27.2727">METALLIC</tspan></text>
<text id="ABOUT" fill="white" xml:space="preserve" style="white-space: pre" font-family="Inter" font-size="20" letter-spacing="0em"><tspan x="234.293" y="28.2727">ABOUT</tspan></text>
</g>
</svg>
