<svg width="236" height="253" viewBox="0 0 236 253" fill="none" xmlns="http://www.w3.org/2000/svg">
<path fill-rule="evenodd" clip-rule="evenodd" d="M110.136 0.47345L101.806 26.0752C104.009 19.8726 105.953 15.4039 110.136 10.9469L105.508 31.8938C100.936 37.1073 100.686 39.9234 99.0298 47.0221L103.389 37.0374L112.912 20.2566L113.838 26.0752L120.317 17.9292C118.466 29.2871 114.856 32.883 110.136 42.3673L118.466 34.2212L111.617 59.823C107.239 73.5898 91.274 114.32 85.1471 126.155H112.912C117.586 126.225 119.53 127.959 123.093 123.827C117.022 123.827 96.9566 124.863 92.5512 122.664L104.583 121.547H116.615L123.852 120.313L136.356 98.2257L150.988 71.4602L160.956 54.0044L171.22 31.8938L173.071 44.6947C178.679 38.2011 181.743 46.1261 181.678 50.5133C181.641 53.3877 179.818 56.2853 178.624 58.6593C186.12 60.6958 184.371 63.7913 182.28 70.2965L180.206 78.4425C178.05 87.8453 174.154 103.614 170.924 112.19L163.816 129.646L176.773 130.81H213.793H235.5C235.5 130.81 221 134.301 218.421 134.301H195.283L182.326 135.465C182.326 135.465 202.5 136.5 204.5 136.5C206.5 136.5 219 137.5 221 137.5H230C231.6 137.5 228.5 139 226.5 139.5C224.5 140 213.793 141.283 213.793 141.283H196.209L172.145 143.611C166.305 143.518 162.677 140.469 158.263 145.938L185.102 147.102L201.762 148.265H181.4L167.518 149.429L156.412 150.593L165.667 151.757C160.586 153.572 156.68 152.071 154.144 154.782C152.367 156.691 150.766 161.8 149.692 164.558L142.297 183.177L136.874 195.978C129.646 215.179 123.093 235.125 113.838 253C108.303 249.707 101.436 240.746 99.6314 233.217C98.7429 229.528 99.1501 224.477 98.7707 220.416C96.0126 191.148 101.242 178.883 110.136 152.92L92.5512 154.084L83.2961 152.967H73.1155V155.248H94.4022L106.434 156.411L79.594 157.575C69.4874 157.599 69.8206 161.788 65.0172 173.867L50.3571 213.434C48.6819 218.1 44.4709 228.783 40.6855 230.738C35.225 233.566 27.1453 216.867 27.0897 211.106C27.0249 203.367 29.0333 196.374 30.2735 188.996C32.8279 173.856 35.5212 158.355 41.648 144.774L18.5102 142.773L9.25512 141.283L11.1061 140.119L0 138.956L3.70205 134.301L31.4674 131.973L45.1557 130.786L51.0327 120.336L61.4725 97.0619L91.2555 33.0575L105.508 3.9646C104.028 10.3301 99.761 18.9184 97.0399 24.9115L80.9083 59.823C78.0484 66.1071 73.0784 75.0095 72.1899 81.9336L110.136 0.47345ZM95.3277 36.5487H96.2533V37.7124L95.3277 36.5487ZM94.4022 38.8761H95.3277V40.0398L94.4022 38.8761ZM94.4022 49.3496H96.2533L94.4022 54.0044V49.3496ZM70.3389 81.9336H71.2644V83.0973L70.3389 81.9336Z" fill="white"/>
</svg>
