<svg width="236" height="263" viewBox="0 0 236 263" fill="none" xmlns="http://www.w3.org/2000/svg">
<path fill-rule="evenodd" clip-rule="evenodd" d="M110.136 10.4734L101.806 36.0752C104.009 29.8726 105.953 25.4039 110.136 20.9469L105.508 41.8938C100.936 47.1073 100.686 49.9234 99.0298 57.0221L103.389 47.0374L112.912 30.2566L113.838 36.0752L120.317 27.9292C118.466 39.2871 114.856 42.883 110.136 52.3673L118.466 44.2212L111.617 69.823C107.239 83.5898 91.274 124.32 85.1471 136.155H112.912C117.586 136.225 119.53 137.959 123.093 133.827C117.022 133.827 96.9566 134.863 92.5512 132.664L104.583 131.547H116.615L123.852 130.313L136.356 108.226L150.988 81.4602L160.956 64.0044L171.22 41.8938L173.071 54.6947C178.679 48.2011 181.743 56.1261 181.678 60.5133C181.641 63.3877 179.818 66.2853 178.624 68.6593C186.12 70.6958 184.371 73.7913 182.28 80.2965L180.206 88.4425C178.05 97.8453 174.154 113.614 170.924 122.19L163.816 139.646L176.773 140.81H213.793H235.5C235.5 140.81 221 144.301 218.421 144.301H195.283L182.326 145.465C182.326 145.465 202.5 146.5 204.5 146.5C206.5 146.5 219 147.5 221 147.5H230C231.6 147.5 228.5 149 226.5 149.5C224.5 150 213.793 151.283 213.793 151.283H196.209L172.145 153.611C166.305 153.518 162.677 150.469 158.263 155.938L185.102 157.102L201.762 158.265H181.4L167.518 159.429L156.412 160.593L165.667 161.757C160.586 163.572 156.68 162.071 154.144 164.782C152.367 166.691 150.766 171.8 149.692 174.558L142.297 193.177L136.874 205.978C129.646 225.179 123.093 245.125 113.838 263C108.303 259.707 101.436 250.746 99.6314 243.217C98.7429 239.528 99.1501 234.477 98.7707 230.416C96.0126 201.148 101.242 188.883 110.136 162.92L92.5512 164.084L83.2961 162.967H73.1155V165.248H94.4022L106.434 166.411L79.594 167.575C69.4874 167.598 69.8206 171.788 65.0172 183.867L50.3571 223.434C48.6819 228.1 44.4709 238.783 40.6855 240.738C35.225 243.566 27.1453 226.867 27.0897 221.106C27.025 213.367 29.0333 206.374 30.2735 198.996C32.8279 183.856 35.5212 168.355 41.648 154.774L18.5102 152.773L9.25512 151.283L11.1061 150.119L0 148.956L3.70205 144.301L31.4674 141.973L45.1557 140.786L51.0327 130.336L61.4725 107.062L91.2555 43.0575L105.508 13.9646C104.028 20.3301 99.761 28.9184 97.0399 34.9115L80.9083 69.823C78.0484 76.1071 73.0784 85.0095 72.1899 91.9336L110.136 10.4734ZM95.3277 46.5487H96.2533V47.7124L95.3277 46.5487ZM94.4022 48.8761H95.3277V50.0398L94.4022 48.8761ZM94.4022 59.3496H96.2533L94.4022 64.0044V59.3496ZM70.3389 91.9336H71.2644V93.0973L70.3389 91.9336Z" fill="white"/>
</svg>
